<?xml version="1.0" encoding="utf-8"?>
<!-- Generator: Adobe Illustrator 27.1.0, SVG Export Plug-In . SVG Version: 6.00 Build 0)  -->
<svg version="1.1" id="Capa_1" xmlns="http://www.w3.org/2000/svg" xmlns:xlink="http://www.w3.org/1999/xlink" x="0px" y="0px"
	 viewBox="0 0 2536.8 605.9" style="enable-background:new 0 0 2536.8 605.9;" xml:space="preserve">
<style type="text/css">
	.st0{fill:#25B1BF;stroke:#25B1BF;stroke-width:10.7902;stroke-miterlimit:10;}
	.st1{fill:#25B1BF;}
	.st2{fill:#FF4400;}
	.st3{fill:#FFFFFF;}
</style>
<g>
	<g>
		<path class="st0" d="M218.1,158.9c-10.5-15.4-19.7-29.6-28.4-42.5c-1.2-1.8-3.1-3.7-4.9-4.9c-7.4-4.9-17.3-2.5-22.2,4.9
			c-8,12.9-17.3,26.5-28.4,42.5C85.5,230.4,12.8,338.3,12.8,400c0,45,18.5,85.7,48.1,115.3c29.6,29,70.3,47.5,115.3,47.5
			s85.7-18.5,115.3-48.1c29.6-29.6,48.1-70.3,48.1-115.3C339.5,337.7,266.8,230.4,218.1,158.9z M269.3,492.5
			c-24,24-56.7,38.2-93.1,38.2s-69.1-14.8-93.1-38.2c-24-24-38.2-56.7-38.2-93.1c0-51.8,69.7-154.8,115.9-223.2
			c5.5-8,10.5-16,15.4-22.8c4.9,6.8,9.9,14.8,15.4,22.8c46.2,69.1,115.9,171.4,115.9,223.2C307.5,435.8,292.7,468.4,269.3,492.5z"/>
	</g>
</g>
<g>
	<g>
		<path class="st1" d="M271.7,388.3c-8.6-0.6-16,6.2-16.6,14.8c-0.6,13.6-4.9,26.5-11.7,37.6c-6.8,11.1-16.6,21-28.4,27.1
			c-7.4,4.3-10.5,14.2-6.2,21.6c4.9,8.6,14.8,11.1,22.2,6.8c16.6-9.2,30.2-22.8,39.5-38.2c9.9-15.4,15.4-33.9,16-53
			C287.1,396.3,280.3,388.9,271.7,388.3z"/>
	</g>
</g>
<rect x="77.4" y="261.1" class="st0" width="196.3" height="32.6"/>
<g>
	<path class="st1" d="M390.7,294.2c-5.8,3.6-10.6,8.8-10.6,14.2c0,4.7,2.9,6.9,9.9,7.7c19.7,2.2,30.7,3.3,51.5,5.5
		c28.8,3.3,38,17.5,38,43.1c0,38-13.9,52.9-80.3,52.9c-20.4,0-48.5-2.9-68.6-9.1l5.5-33.2c19,4.7,39,7.7,59.8,7.7
		c35.4,0,42.3-2.6,42.3-14.2c0-10.9-3.3-12.8-16.8-14.2c-20.4-2.2-28.8-3.3-51.5-5.8c-25.2-2.9-35-11.3-35-33.9
		c0-14.6,9.9-24.1,18.6-30.3c-16.4-9.9-24.1-26.3-24.1-47.8v-16.8c0.7-36.9,20.1-59.1,71.5-59.1c12,0,21.5,1.5,30.3,3.6h54.7v22.3
		c-6.2,1.8-13.5,3.6-19.7,5.5c4,7.7,6.2,17.5,6.2,27.7v16.8c0,36.1-21.9,58-71.5,58C397.2,294.6,393.9,294.6,390.7,294.2z
		 M400.9,196.4c-21.9,0-29.6,8-29.6,24.8v13.5c0,17.5,8.8,24.1,29.6,24.1c21.2,0,29.9-6.9,29.9-24.1v-13.5
		C430.8,204.5,423.1,196.4,400.9,196.4z"/>
	<path class="st1" d="M561.4,164.3v124.1c0,9.5,4,14.2,14.2,14.2c10.9,0,30.3-6.6,46.3-15V164.3h44.5V342h-33.9l-4.4-15
		c-22.3,10.9-50.4,18.6-71.2,18.6c-29.6,0-40.1-20.8-40.1-52.5V164.3H561.4z"/>
	<path class="st1" d="M849.3,342h-36.5l-3.3-12c-16.1,10.6-35,15.7-52.9,15.7c-32.5,0-46.3-22.3-46.3-52.9c0-36.1,15.7-50,51.8-50
		h42.7v-18.6c0-19.7-5.5-26.6-33.9-26.6c-16.1,0-33.6,2.2-49.3,5.5l-5.5-33.9c16.8-5.1,41.2-8.4,60.9-8.4
		c55.8,0,72.3,19.7,72.3,64.2V342z M804.8,274.9H772c-14.6,0-18.6,4-18.6,17.5c0,12.4,4,17.9,17.9,17.9c13.1,0,25.2-4.4,33.6-9.1
		V274.9z"/>
</g>
<g>
	<path class="st1" d="M1083.5,282.9c0,39.4-17.5,62.8-58.8,62.8c-15.7,0-33.6-2.2-47.4-5.1v73.3l-44.5,6.2V164.3h35.4l4.4,15
		c15.7-11.3,33.9-18.6,56.2-18.6c35.8,0,54.7,21.2,54.7,61.7V282.9z M977.3,303c11.7,2.6,26.6,4.7,39.4,4.7
		c16.1,0,22.3-7.7,22.3-23.7v-62.8c0-14.6-5.5-22.6-21.9-22.6c-14.6,0-30.3,7.3-39.8,16.1V303z"/>
	<path class="st1" d="M1259,342h-36.5l-3.3-12c-16.1,10.6-35,15.7-52.9,15.7c-32.5,0-46.3-22.3-46.3-52.9c0-36.1,15.7-50,51.8-50
		h42.7v-18.6c0-19.7-5.5-26.6-33.9-26.6c-16.1,0-33.6,2.2-49.3,5.5l-5.5-33.9c16.8-5.1,41.2-8.4,60.9-8.4
		c55.8,0,72.3,19.7,72.3,64.2V342z M1214.5,274.9h-32.8c-14.6,0-18.6,4-18.6,17.5c0,12.4,4,17.9,17.9,17.9c13.1,0,25.2-4.4,33.6-9.1
		V274.9z"/>
	<path class="st1" d="M1398,201.5c-17.2,7.7-31,15.7-47.1,25.9V342h-44.5V164.3h37.6l2.9,19.7c9.9-6.6,31-19,46.7-23.4L1398,201.5z"
		/>
	<path class="st1" d="M1558.6,342h-36.5l-3.3-12c-16.1,10.6-35,15.7-52.9,15.7c-32.5,0-46.3-22.3-46.3-52.9c0-36.1,15.7-50,51.8-50
		h42.7v-18.6c0-19.7-5.5-26.6-33.9-26.6c-16.1,0-33.6,2.2-49.3,5.5l-5.5-33.9c16.8-5.1,41.2-8.4,60.9-8.4
		c55.8,0,72.3,19.7,72.3,64.2V342z M1514.1,274.9h-32.8c-14.6,0-18.6,4-18.6,17.5c0,12.4,4,17.9,17.9,17.9c13.1,0,25.2-4.4,33.6-9.1
		V274.9z"/>
</g>
<rect x="1574.9" y="55.3" class="st2" width="961.9" height="340.1"/>
<g>
	<path class="st3" d="M1746.2,336.6c-9.5,4-27.7,6.9-39,6.9c-32.5,0-48.9-15.3-48.9-47.1v-98.9h-26.6v-35.4h26.6v-44.2l44.5-6.2
		v50.4h45.6l-2.9,35.4h-42.7v93.1c0,9.5,4.4,15.7,16.1,15.7c6.6,0,14.6-1.5,22.3-3.6L1746.2,336.6z"/>
	<path class="st3" d="M1850.5,343.6c-60.9,0-77.4-33.6-77.4-70.1v-44.9c0-36.5,16.4-70.1,77.4-70.1c60.9,0,77.4,33.6,77.4,70.1v44.9
		C1927.9,310,1911.5,343.6,1850.5,343.6z M1850.5,196.5c-23.7,0-32.8,10.6-32.8,30.7V275c0,20.1,9.1,30.7,32.8,30.7
		c23.7,0,32.8-10.6,32.8-30.7v-47.8C1883.4,207.1,1874.2,196.5,1850.5,196.5z"/>
	<path class="st3" d="M1963.6,221.3c0-39.4,17.5-62.8,58.8-62.8c15.7,0,33.6,2.2,47.4,5.1V89.6l44.5-6.2v256.5H2079l-4.4-15
		c-15.7,11.3-33.9,18.6-56.2,18.6c-35.8,0-54.7-21.2-54.7-61.7V221.3z M2069.8,201.3c-11.7-2.6-26.6-4.7-39.4-4.7
		c-16.1,0-22.3,7.7-22.3,23.7V283c0,14.6,5.5,22.6,21.9,22.6c14.6,0,30.3-7.3,39.8-16.1V201.3z"/>
	<path class="st3" d="M2234.8,343.6c-60.9,0-77.4-33.6-77.4-70.1v-44.9c0-36.5,16.4-70.1,77.4-70.1c60.9,0,77.4,33.6,77.4,70.1v44.9
		C2312.1,310,2295.7,343.6,2234.8,343.6z M2234.8,196.5c-23.7,0-32.8,10.6-32.8,30.7V275c0,20.1,9.1,30.7,32.8,30.7
		c23.7,0,32.8-10.6,32.8-30.7v-47.8C2267.6,207.1,2258.5,196.5,2234.8,196.5z"/>
	<path class="st3" d="M2410.3,343.6c-19,0-44.9-4.4-61.3-10.2l6.2-33.9c15,4.4,34.7,7.7,52.9,7.7c19.7,0,22.6-4.4,22.6-17.9
		c0-10.9-2.2-16.4-31-23.4c-43.4-10.6-48.5-21.5-48.5-55.8c0-35.8,15.7-51.5,66.4-51.5c16.4,0,38,2.2,53.3,6.2l-4.4,35.4
		c-13.5-2.6-35-5.1-48.9-5.1c-19.3,0-22.6,4.4-22.6,15.3c0,14.2,1.1,15.3,25.2,21.5c49.6,13.1,54.4,19.7,54.4,56.2
		C2474.5,322.4,2463.9,343.6,2410.3,343.6z"/>
</g>
</svg>
